<?xml version="1.0" ?><svg viewBox="0 0 512 512" xmlns="http://www.w3.org/2000/svg"><g data-name="Capa 10" id="Capa_10"><path d="M394.5,374.29h-277A22.5,22.5,0,0,1,95,351.82V143.71a6,6,0,0,1,6-6H411a6,6,0,0,1,6,6V351.82A22.5,22.5,0,0,1,394.5,374.29ZM107,149.71V351.82a10.48,10.48,0,0,0,10.47,10.47h277A10.48,10.48,0,0,0,405,351.82V149.71Z"/><path d="M318.27,238.56H193.73a6,6,0,0,1-6-6V196.18a6,6,0,0,1,6-6H318.27a6,6,0,0,1,6,6v36.38A6,6,0,0,1,318.27,238.56Zm-118.54-12H312.27V202.18H199.73Z"/><path d="M54,238.56a5.93,5.93,0,0,1-2.8-.7,6,6,0,0,1-2.49-8.11L95.73,140.9a6,6,0,0,1,10.6,5.62l-47,88.85A6,6,0,0,1,54,238.56Z"/><path d="M458,238.56a6,6,0,0,1-5.31-3.19l-47.05-88.85a6,6,0,0,1,10.6-5.62l47.05,88.85a6,6,0,0,1-2.49,8.11A5.93,5.93,0,0,1,458,238.56Z"/></g></svg>