<svg width="21" height="18" viewBox="0 0 21 18" fill="none" xmlns="http://www.w3.org/2000/svg">
<path d="M18.3068 9.12544C18.7869 8.63566 19.1548 8.05688 19.3871 7.4256C19.573 6.9026 19.6678 6.35442 19.668 5.80256C19.6751 4.54891 19.1766 3.34008 18.2744 2.42336C17.8461 1.97808 17.3248 1.62207 16.7437 1.37792C16.1625 1.13377 15.5341 1.00681 14.8984 1.00512C13.9607 1.02117 13.0485 1.29745 12.2747 1.79977C11.5009 2.30209 10.8994 3.00841 10.5447 3.83136C10.5268 3.87515 10.4959 3.91303 10.4555 3.94032C10.4152 3.96761 10.3674 3.98313 10.3179 3.98496C10.2679 3.98207 10.2199 3.96555 10.1797 3.93738C10.1394 3.90922 10.1086 3.87062 10.091 3.82623C9.74022 3.00686 9.14418 2.30269 8.37634 1.80049C7.60849 1.2983 6.70239 1.02004 5.76973 1C5.13323 1.00161 4.504 1.1285 3.92194 1.37263C3.33987 1.61677 2.81765 1.97282 2.38834 2.41823C1.48765 3.33547 0.991002 4.5444 1.00012 5.79744C0.999278 6.33685 1.09048 6.87284 1.2702 7.38464C1.54188 8.17048 2.02392 8.87612 2.66923 9.43264L10.037 16.8925C10.1107 16.9606 10.2094 16.9991 10.3125 17C10.4139 16.9994 10.5111 16.9608 10.5825 16.8925L12.7432 14.7165C12.8776 14.9111 13.0294 15.0944 13.1969 15.2643C13.555 15.63 13.9887 15.922 14.471 16.1219C14.9533 16.3219 15.4739 16.4256 16.0003 16.4266H16.0328C17.1241 16.3852 18.1539 15.936 18.8968 15.1771C19.6398 14.4182 20.0355 13.4113 19.9975 12.3766C19.9942 11.2832 19.5339 10.2356 18.7173 9.46336C18.5894 9.34137 18.4522 9.22843 18.3068 9.12544ZM10.3125 16.1296L3.19317 8.9616L3.14994 8.92064C2.98647 8.78013 2.83478 8.62777 2.69623 8.46496C2.36504 8.07428 2.11071 7.63029 1.9454 7.15423C1.79355 6.71465 1.71696 6.25486 1.71854 5.79232C1.71155 4.71827 2.13649 3.68203 2.9069 2.8944C3.26613 2.52135 3.70323 2.22313 4.19047 2.01865C4.67771 1.81417 5.20446 1.70789 5.73733 1.70655C6.52838 1.72162 7.29729 1.9568 7.94844 2.38284C8.59959 2.80887 9.10423 3.40696 9.39959 4.10272C9.47162 4.27731 9.59755 4.42724 9.76089 4.53294C9.92423 4.63863 10.1174 4.69518 10.3152 4.69518C10.5129 4.69518 10.7061 4.63863 10.8695 4.53294C11.0328 4.42724 11.1587 4.27731 11.2307 4.10272C11.5261 3.40696 12.0307 2.80887 12.6819 2.38284C13.333 1.9568 14.102 1.72162 14.893 1.70655C15.4258 1.7082 15.9525 1.81462 16.4397 2.01908C16.9269 2.22354 17.364 2.52159 17.7234 2.8944C18.4854 3.6818 18.9042 4.71364 18.8956 5.78208C18.8962 6.25541 18.816 6.72572 18.6579 7.17472C18.458 7.7324 18.1359 8.24366 17.7126 8.67488V8.70048L17.6802 8.7312C17.1558 8.49298 16.5819 8.36879 16.0003 8.36768C14.9104 8.40901 13.882 8.85769 13.1401 9.61564C12.3981 10.3736 12.003 11.3791 12.041 12.4125C12.0411 12.9721 12.1605 13.5259 12.3921 14.0406L10.3125 16.1296ZM16.0328 15.9555C15.5689 15.9565 15.1098 15.8659 14.6848 15.6897C14.2598 15.5134 13.8782 15.2552 13.5642 14.9315C12.8901 14.2546 12.5151 13.3587 12.5163 12.4278C12.4768 11.5172 12.8194 10.6287 13.4694 9.95703C14.1193 9.28532 15.0235 8.88505 15.9841 8.84384C16.4277 8.84264 16.8671 8.92483 17.2769 9.08566C17.6867 9.24648 18.0588 9.48276 18.3716 9.7808C19.0868 10.4613 19.4921 11.3803 19.5006 12.3408C19.5253 12.7944 19.455 13.2482 19.2937 13.6759C19.1325 14.1036 18.8834 14.4968 18.5611 14.8329C18.2387 15.1689 17.8493 15.4412 17.4153 15.6338C16.9814 15.8265 16.5115 15.9358 16.0328 15.9555Z" fill="black" stroke="black" stroke-width="0.5" stroke-miterlimit="10"/>
</svg>
