<svg width="32" height="28" viewBox="0 0 32 28" fill="none" xmlns="http://www.w3.org/2000/svg">
<g clip-path="url(#clip0_294_68)">
<path d="M28.7884 14.2084C29.5727 13.3777 30.1735 12.3959 30.553 11.3251C30.8565 10.4379 31.0115 9.50808 31.0118 8.57196C31.0234 6.44545 30.2091 4.39496 28.7355 2.83996C28.036 2.08465 27.1845 1.48076 26.2353 1.06662C25.286 0.652481 24.2596 0.437128 23.2213 0.434248C21.6897 0.461481 20.1998 0.930127 18.9359 1.78219C17.672 2.63426 16.6896 3.83236 16.1102 5.2283C16.081 5.30258 16.0304 5.36683 15.9645 5.41312C15.8987 5.45942 15.8205 5.48574 15.7397 5.48884C15.6581 5.48395 15.5797 5.45591 15.514 5.40814C15.4482 5.36037 15.3979 5.29489 15.3691 5.2196C14.7962 3.82974 13.8226 2.63527 12.5685 1.78341C11.3143 0.931557 9.8343 0.459555 8.31094 0.425568C7.27131 0.428303 6.24355 0.643538 5.29283 1.05765C4.34211 1.47176 3.48914 2.07572 2.78791 2.83127C1.31676 4.38713 0.505566 6.4378 0.520465 8.56328C0.519084 9.47826 0.668053 10.3874 0.961601 11.2556C1.40534 12.5886 2.19269 13.7855 3.24671 14.7295L15.2809 27.3834C15.4014 27.499 15.5626 27.5643 15.7308 27.5658C15.8966 27.5648 16.0552 27.4992 16.172 27.3834L19.701 23.6923C19.9205 24.0224 20.1685 24.3333 20.4422 24.6216C21.0271 25.242 21.7355 25.7372 22.5232 26.0763C23.311 26.4155 24.1613 26.5914 25.0212 26.5931H25.0741C26.8567 26.5229 28.5386 25.761 29.7521 24.4736C30.9656 23.1863 31.612 21.4784 31.5499 19.7233C31.5446 17.8686 30.7927 16.0916 29.459 14.7816C29.25 14.5747 29.0259 14.3831 28.7884 14.2084ZM15.7308 26.0893L4.10249 13.9305L4.03189 13.8611C3.76487 13.6227 3.51712 13.3643 3.29081 13.0881C2.74986 12.4254 2.33445 11.6723 2.06444 10.8648C1.81641 10.1191 1.69132 9.33919 1.6939 8.5546C1.68248 6.73273 2.37655 4.97499 3.63491 3.63896C4.22166 3.00617 4.9356 2.50031 5.73144 2.15346C6.52728 1.80661 7.38765 1.62633 8.25801 1.62407C9.55008 1.64962 10.806 2.04855 11.8695 2.77122C12.9331 3.49389 13.7574 4.50841 14.2398 5.68859C14.3574 5.98474 14.5631 6.23907 14.8299 6.41836C15.0967 6.59765 15.4122 6.69356 15.7352 6.69356C16.0583 6.69356 16.3738 6.59765 16.6406 6.41836C16.9074 6.23907 17.113 5.98474 17.2307 5.68859C17.7131 4.50841 18.5374 3.49389 19.6009 2.77122C20.6645 2.04855 21.9205 1.64962 23.2125 1.62407C24.0828 1.62686 24.943 1.80737 25.7388 2.15419C26.5345 2.50101 27.2485 3.00659 27.8356 3.63896C29.0802 4.9746 29.7643 6.72488 29.7501 8.53723C29.7512 9.34012 29.6201 10.1379 29.3619 10.8995C29.0355 11.8455 28.5093 12.7127 27.818 13.4442V13.4876L27.765 13.5397C26.9084 13.1356 25.971 12.925 25.0212 12.9231C23.2409 12.9932 21.5612 13.7543 20.3493 15.04C19.1375 16.3256 18.492 18.0313 18.5541 19.7841C18.5543 20.7334 18.7493 21.6728 19.1276 22.5459L15.7308 26.0893ZM25.0741 25.794C24.3164 25.7957 23.5666 25.6421 22.8725 25.3431C22.1783 25.044 21.555 24.6061 21.0421 24.0571C19.941 22.9089 19.3285 21.3892 19.3305 19.8102C19.2659 18.2654 19.8256 16.7584 20.8872 15.619C21.9488 14.4796 23.4257 13.8007 24.9947 13.7308C25.7191 13.7287 26.4369 13.8682 27.1062 14.141C27.7756 14.4138 28.3834 14.8145 28.8944 15.3201C30.0624 16.4744 30.7244 18.0333 30.7383 19.6625C30.7786 20.432 30.6638 21.2017 30.4004 21.9272C30.137 22.6527 29.7303 23.3198 29.2037 23.8898C28.6771 24.4598 28.0411 24.9216 27.3323 25.2484C26.6236 25.5752 25.8561 25.7607 25.0741 25.794Z" fill="white" stroke="white" stroke-miterlimit="10"/>
</g>
<defs>
<clipPath id="clip0_294_68">
<rect width="32" height="28" fill="white"/>
</clipPath>
</defs>
</svg>
