<svg width="24" height="29" viewBox="0 0 24 29" fill="none" xmlns="http://www.w3.org/2000/svg">
<g clip-path="url(#clip0_294_65)">
<path d="M20.7612 29C20.9072 29.0015 21.0492 28.9479 21.1629 28.8484L23.7622 26.5484C23.8914 26.4312 23.9762 26.266 24 26.0849C24.0094 25.9923 24.0011 25.8985 23.9757 25.8096C23.9503 25.7206 23.9083 25.6383 23.8524 25.5678L17.2927 16.8223C18.583 14.9769 19.2743 12.7187 19.2586 10.4008C19.243 8.0828 18.5212 5.83587 17.2062 4.01133C15.8911 2.18678 14.0569 0.887526 11.9906 0.316757C9.9242 -0.254013 7.74214 -0.0641285 5.78558 0.856741C3.82903 1.77761 2.20832 3.37752 1.17696 5.40626C0.145596 7.435 -0.238247 9.77817 0.0854046 12.0693C0.409056 14.3605 1.42196 16.4704 2.96575 18.0691C4.50953 19.6679 6.49713 20.6652 8.61768 20.9053C8.95513 20.9483 9.29466 20.9691 9.63441 20.9677C11.0344 20.9675 12.4172 20.6327 13.685 19.9871L20.2446 28.7415C20.3069 28.8244 20.3858 28.8909 20.4754 28.9357C20.5649 28.9805 20.6627 29.0025 20.7612 29ZM8.78163 19.5235C6.85461 19.308 5.05598 18.3727 3.69226 16.8768C2.32854 15.3809 1.48413 13.4171 1.30302 11.3202C1.12191 9.22322 1.61531 7.12287 2.69905 5.37712C3.7828 3.63137 5.38983 2.34828 7.24627 1.74654C9.10271 1.1448 11.0936 1.26166 12.8797 2.0772C14.6658 2.89274 16.1364 4.35647 17.041 6.21893C17.9456 8.08138 18.2281 10.2273 17.8404 12.2908C17.4527 14.3544 16.4188 16.2079 14.9149 17.5355C14.0643 18.2914 13.0842 18.8563 12.0315 19.1976C10.9787 19.5388 9.87407 19.6496 8.78163 19.5235ZM15.7267 18.632C15.9858 18.4078 16.2323 18.1666 16.4646 17.9099L22.4585 25.9333L20.8186 27.3507L14.8247 19.3274C15.1386 19.1101 15.4398 18.8719 15.7267 18.6142V18.632Z" fill="white"/>
<line y1="-2.5" x2="10.7726" y2="-2.5" transform="matrix(0.589729 0.807601 -0.79221 0.610249 14.1177 19.575)" stroke="white" stroke-width="5"/>
</g>
<defs>
<clipPath id="clip0_294_65">
<rect width="24" height="29" fill="white"/>
</clipPath>
</defs>
</svg>
