<svg width="32" height="32" viewBox="0 0 32 32" fill="none" xmlns="http://www.w3.org/2000/svg">
<path d="M16 32C24.8366 32 32 24.8366 32 16C32 7.16344 24.8366 0 16 0C7.16344 0 0 7.16344 0 16C0 24.8366 7.16344 32 16 32Z" fill="#010201"/>
<path d="M23.7867 9.5004C23.774 9.4384 23.7455 9.38071 23.704 9.33296C23.6624 9.2852 23.6093 9.24898 23.5496 9.22781C23.325 9.18425 23.0928 9.20062 22.8764 9.27523C22.8764 9.27523 7.92414 14.6512 7.06844 15.2462C6.88592 15.3742 6.8314 15.45 6.79347 15.5354C6.64651 15.9597 7.10636 16.1469 7.10636 16.1469L10.9606 17.4032C11.0244 17.4188 11.0911 17.4188 11.155 17.4032C12.032 16.8485 19.9751 11.8328 20.435 11.6646C20.5061 11.6432 20.5606 11.6645 20.5464 11.7167C20.3615 12.3614 13.4613 18.4936 13.4613 18.4936C13.4445 18.5157 13.4302 18.5395 13.4187 18.5647L13.0607 22.3881C13.0607 22.3881 12.909 23.5591 14.08 22.3881C14.9072 21.5608 15.7061 20.8687 16.1067 20.5345C17.4317 21.4495 18.8587 22.4616 19.4726 22.9902C19.5764 23.0899 19.699 23.1679 19.8333 23.2196C19.9677 23.2713 20.1109 23.2957 20.2548 23.2912C20.8379 23.2699 21.0015 22.6275 21.0015 22.6275C21.0015 22.6275 23.7274 11.6598 23.8175 10.1902C23.8175 10.048 23.8388 9.95314 23.8388 9.85596C23.8402 9.73544 23.8226 9.61545 23.7867 9.5004Z" fill="white"/>
</svg>
