<svg width="32" height="32" viewBox="0 0 32 32" fill="none" xmlns="http://www.w3.org/2000/svg">
<path d="M16 32C24.8366 32 32 24.8366 32 16C32 7.16344 24.8366 0 16 0C7.16344 0 0 7.16344 0 16C0 24.8366 7.16344 32 16 32Z" fill="#010201"/>
<path d="M5.35779 10.6599H9.02204C9.09172 10.6608 9.15969 10.6822 9.2179 10.7217C9.2761 10.7613 9.32209 10.8171 9.35042 10.8828C10.1551 12.7177 11.1978 14.4314 12.45 15.9769C12.4741 16.017 12.5084 16.0494 12.5492 16.0706C12.59 16.0918 12.6357 16.101 12.6813 16.0971C12.7268 16.0933 12.7705 16.0766 12.8074 16.0488C12.8443 16.021 12.8731 15.9833 12.8905 15.9398C13.291 14.9738 13.9878 12.6372 12.6102 10.9488C12.5814 10.9142 12.5609 10.8731 12.5503 10.8288C12.5396 10.7846 12.5391 10.7383 12.5488 10.6938C12.5586 10.6494 12.5782 10.6078 12.6063 10.5725C12.6343 10.5372 12.6699 10.5092 12.7103 10.4906C13.3478 10.1798 14.0423 10.0128 14.7473 10.0007C15.4524 9.98861 16.1519 10.1317 16.7991 10.4204C16.9358 10.4827 17.052 10.5844 17.1337 10.7134C17.2155 10.8423 17.2592 10.9929 17.2596 11.147L17.572 15.9934C17.5716 16.0448 17.5824 16.0955 17.6034 16.142C17.6244 16.1886 17.6552 16.2297 17.6935 16.2625C17.7318 16.2953 17.7767 16.3189 17.8249 16.3316C17.8732 16.3443 17.9236 16.3458 17.9724 16.3361C19.5022 16.0017 20.4033 13.6362 21.2963 11.1717C21.3481 11.0226 21.4431 10.8935 21.5684 10.8019C21.6938 10.7104 21.8435 10.6608 21.9971 10.6599H25.369C25.4345 10.659 25.4994 10.6729 25.5591 10.7006C25.6188 10.7284 25.6719 10.7692 25.7147 10.8204C25.7574 10.8715 25.7888 10.9317 25.8065 10.9967C25.8243 11.0617 25.8281 11.1299 25.8175 11.1965C25.5012 12.9468 23.7912 15.2173 22.8982 16.3113C22.7488 16.4938 22.6669 16.7248 22.6669 16.9635C22.6669 17.2023 22.7488 17.4333 22.8982 17.6158L25.9137 21.3311C25.9598 21.3913 25.9888 21.4635 25.9973 21.5397C26.0059 21.6159 25.9937 21.6931 25.9621 21.7625C25.9305 21.832 25.8807 21.891 25.8184 21.9329C25.7561 21.9748 25.6837 21.998 25.6093 21.9999H21.7929C21.6379 22.0003 21.4845 21.9675 21.3425 21.9036C21.2005 21.8396 21.0729 21.7459 20.9679 21.6284L18.3008 19.3372C18.2699 19.2972 18.2313 19.2641 18.1875 19.2399C18.1437 19.2158 18.0955 19.2011 18.046 19.1969C17.9965 19.1926 17.9467 19.1989 17.8996 19.2152C17.8525 19.2315 17.8092 19.2576 17.7722 19.2918C17.4398 19.7046 17.4638 20.2165 17.3077 21.3765C17.2806 21.5526 17.1928 21.7126 17.0603 21.8272C16.9279 21.9417 16.7597 22.0031 16.5868 21.9999H13.9838C13.6129 22.0024 13.2462 21.9191 12.9106 21.7563C11.4128 21.0256 7.30405 18.4332 5.0214 11.1717C5.0019 11.115 4.9956 11.0544 5.00302 10.9947C5.01043 10.935 5.03135 10.878 5.06409 10.8282C5.09682 10.7783 5.14046 10.7372 5.19148 10.7079C5.2425 10.6787 5.29946 10.6622 5.35779 10.6599Z" fill="white"/>
</svg>
