<svg width="32" height="32" viewBox="0 0 32 32" fill="none" xmlns="http://www.w3.org/2000/svg">
<path d="M16 32C24.8366 32 32 24.8366 32 16C32 7.16344 24.8366 0 16 0C7.16344 0 0 7.16344 0 16C0 24.8366 7.16344 32 16 32Z" fill="#010201"/>
<path fill-rule="evenodd" clip-rule="evenodd" d="M23.6966 8.50013C21.9568 6.75588 19.642 5.70393 17.1838 5.54045C14.7257 5.37697 12.292 6.11312 10.3365 7.61161C8.38108 9.11011 7.03739 11.2687 6.55602 13.6848C6.07464 16.1009 6.48846 18.6096 7.72028 20.7431L6.28146 26.0006L11.6598 24.5902C13.1491 25.3996 14.817 25.8241 16.512 25.8252C18.5193 25.8253 20.4816 25.2303 22.1507 24.1153C23.8199 23.0003 25.1209 21.4155 25.8894 19.5611C26.6579 17.7067 26.8593 15.6661 26.4681 13.6973C26.077 11.7285 25.1108 9.91989 23.6918 8.50013H23.6966ZM16.5144 24.1114C15.0031 24.1078 13.5206 23.6985 12.2216 22.9262L11.9135 22.7437L8.72058 23.5804L9.55969 20.4776L9.37006 20.16C8.37627 18.5754 7.93723 16.7056 8.12199 14.8443C8.30674 12.9831 9.1048 11.236 10.3907 9.87773C11.6766 8.51948 13.3774 7.62708 15.2258 7.34084C17.0742 7.05459 18.9653 7.39073 20.6018 8.2964C22.2383 9.20207 23.5274 10.6259 24.2665 12.3441C25.0056 14.0623 25.1527 15.9774 24.6847 17.7883C24.2168 19.5992 23.1602 21.2032 21.6813 22.3483C20.2023 23.4933 18.3848 24.1143 16.5144 24.1138V24.1114ZM21.1437 17.7896C20.8901 17.6616 19.6432 17.0501 19.4109 16.9647C19.1787 16.8794 19.008 16.8391 18.8397 17.0927C18.6714 17.3463 18.1855 17.9176 18.0361 18.0859C17.8868 18.2542 17.7398 18.2755 17.4862 18.1499C16.7393 17.8508 16.0497 17.425 15.4477 16.8912C14.8891 16.3796 14.4098 15.7876 14.0255 15.1348C13.8761 14.8812 14.0089 14.7437 14.1369 14.6181C14.2649 14.4924 14.3905 14.3218 14.5161 14.1724C14.6215 14.048 14.7085 13.9091 14.7745 13.76C14.8078 13.6897 14.8232 13.6122 14.8195 13.5345C14.8158 13.4568 14.793 13.3812 14.7532 13.3143C14.6892 13.1887 14.1819 11.9395 13.9709 11.4323C13.76 10.925 13.5561 11.0056 13.4021 10.9985C13.248 10.9914 13.0844 10.9985 12.9138 10.9985C12.7854 11.0021 12.6591 11.0322 12.5429 11.0869C12.4266 11.1415 12.3229 11.2196 12.2382 11.3161C11.9518 11.5878 11.7251 11.916 11.5725 12.28C11.4199 12.6441 11.3447 13.0358 11.3517 13.4305C11.3517 14.6773 12.2595 15.8838 12.3875 16.0521C12.5155 16.2204 14.1748 18.7828 16.7182 19.8803C17.1906 20.0837 17.6732 20.2625 18.1641 20.416C18.6817 20.573 19.2287 20.607 19.7618 20.5155C20.2501 20.4421 21.2622 19.9016 21.4732 19.3114C21.6841 18.7212 21.6865 18.2115 21.6225 18.1049C21.5585 17.9982 21.3973 17.9223 21.1437 17.7896Z" fill="white"/>
</svg>
